<svg width="0" height="0" class="hidden">
<symbol fill="none" xmlns="http://www.w3.org/2000/svg" viewBox="0 0 14 16" id="icon-calendar">
  <path d="M4.608 9H3.363a.375.375 0 01-.374-.375v-1.25c0-.206.168-.375.374-.375h1.245c.206 0 .374.169.374.375v1.25A.375.375 0 014.608 9zm3.363-.375v-1.25A.375.375 0 007.597 7H6.352a.375.375 0 00-.374.375v1.25c0 .206.168.375.374.375h1.245a.375.375 0 00.374-.375zm2.989 0v-1.25A.375.375 0 0010.586 7H9.341a.375.375 0 00-.374.375v1.25c0 .206.168.375.374.375h1.245a.375.375 0 00.374-.375zm-2.99 3v-1.25A.375.375 0 007.598 10H6.352a.375.375 0 00-.374.375v1.25c0 .206.168.375.374.375h1.245a.375.375 0 00.374-.375zm-2.988 0v-1.25A.375.375 0 004.608 10H3.363a.375.375 0 00-.374.375v1.25c0 .206.168.375.374.375h1.245a.375.375 0 00.374-.375zm5.978 0v-1.25a.375.375 0 00-.374-.375H9.341a.375.375 0 00-.374.375v1.25c0 .206.168.375.374.375h1.245a.375.375 0 00.374-.375zM13.949 3.5v11c0 .828-.67 1.5-1.495 1.5H1.494A1.498 1.498 0 010 14.5v-11C0 2.672.67 2 1.495 2h1.494V.375c0-.206.168-.375.374-.375h1.245c.206 0 .374.169.374.375V2h3.985V.375c0-.206.168-.375.374-.375h1.245c.206 0 .374.169.374.375V2h1.494c.825 0 1.495.672 1.495 1.5zm-1.495 10.813V5H1.494v9.313c0 .103.085.187.187.187h10.586a.188.188 0 00.187-.188z" fill="#000"></path>
</symbol>
<symbol fill="none" xmlns="http://www.w3.org/2000/svg" viewBox="0 0 16 16" id="icon-clear">
  <path d="M8 16c-4.4 0-8-3.6-8-8s3.6-8 8-8 8 3.6 8 8-3.6 8-8 8zm4-10.88L10.88 4 8 6.88 5.12 4 4 5.12 6.88 8 4 10.88 5.12 12 8 9.12 10.88 12 12 10.88 9.12 8 12 5.12z" fill="#CCC"></path>
</symbol>
<symbol fill="none" xmlns="http://www.w3.org/2000/svg" viewBox="0 0 16 8" id="icon-commit">
  <path d="M3.2 4c0 .27.022.537.065.8H.3a.3.3 0 01-.3-.3v-1a.3.3 0 01.3-.3h2.965A5.06 5.06 0 003.2 4zm12.5-.8h-2.965a5.006 5.006 0 010 1.6H15.7a.3.3 0 00.3-.3v-1a.3.3 0 00-.3-.3zM8 1.2a2.79 2.79 0 00-1.98.82A2.78 2.78 0 005.2 4c0 .747.29 1.45.82 1.98A2.79 2.79 0 008 6.8a2.79 2.79 0 001.98-.82c.53-.53.82-1.233.82-1.98 0-.748-.29-1.45-.82-1.98A2.79 2.79 0 008 1.2zM8 0c2.21 0 4 1.79 4 4s-1.79 4-4 4-4-1.79-4-4 1.79-4 4-4z" fill="#000"></path>
</symbol>
<symbol fill="none" xmlns="http://www.w3.org/2000/svg" viewBox="0 0 9 10" id="icon-play">
  <path d="M8.289 4.193L1.414.128C.855-.202 0 .118 0 .935v8.127a.937.937 0 001.414.806l6.875-4.062a.936.936 0 000-1.613z" fill="#111"></path>
</symbol>
<symbol fill="none" xmlns="http://www.w3.org/2000/svg" viewBox="0 0 12 12" id="icon-restart">
  <path d="M8.775 3.031a4.036 4.036 0 00-2.779-1.096 4.07 4.07 0 00-3.938 3.07.291.291 0 01-.282.22H.39a.29.29 0 01-.286-.342 6.002 6.002 0 0110.04-3.221l.865-.864a.58.58 0 01.991.41v3.244c0 .32-.26.58-.58.58H8.175a.58.58 0 01-.41-.991l1.01-1.01zM.581 6.968h3.243a.58.58 0 01.41.991l-1.01 1.01a4.035 4.035 0 002.78 1.096 4.07 4.07 0 003.938-3.07.291.291 0 01.282-.22h1.386a.29.29 0 01.286.342 6.002 6.002 0 01-10.04 3.221l-.865.864a.58.58 0 01-.991-.41V7.548c0-.32.26-.58.58-.58z" fill="#000"></path>
</symbol>
<symbol fill="none" xmlns="http://www.w3.org/2000/svg" viewBox="0 0 13 12" id="icon-settings">
  <path d="M11.466 7.442l-1.03-.595a4.662 4.662 0 000-1.699l1.03-.595a.292.292 0 00.133-.338 6.026 6.026 0 00-1.324-2.29.291.291 0 00-.358-.055l-1.03.595a4.566 4.566 0 00-1.471-.849V.428a.29.29 0 00-.228-.283 6.082 6.082 0 00-2.641 0 .29.29 0 00-.228.283v1.19a4.71 4.71 0 00-1.47.85l-1.03-.595a.287.287 0 00-.357.055A5.99 5.99 0 00.138 4.217a.29.29 0 00.134.339l1.03.595a4.66 4.66 0 000 1.698l-1.03.595a.292.292 0 00-.134.34c.269.86.726 1.64 1.324 2.288a.29.29 0 00.358.055l1.03-.595c.434.373.932.66 1.472.85v1.19a.29.29 0 00.227.283 6.082 6.082 0 002.642 0 .29.29 0 00.227-.283v-1.19a4.71 4.71 0 001.471-.85l1.03.595a.287.287 0 00.359-.055A5.989 5.989 0 0011.6 7.783a.299.299 0 00-.135-.341zm-5.599.491a1.938 1.938 0 01-1.935-1.935c0-1.067.869-1.936 1.935-1.936 1.067 0 1.936.869 1.936 1.936a1.938 1.938 0 01-1.936 1.935z" fill="#111"></path>
</symbol>
<symbol fill="none" xmlns="http://www.w3.org/2000/svg" viewBox="0 0 14 16" id="icon-stopclock">
  <path d="M12.279 5.75l.704-.706a.376.376 0 000-.531l-.53-.532a.374.374 0 00-.53 0l-.645.647a6.433 6.433 0 00-3.547-1.587V1.5h.873a.376.376 0 00.374-.375v-.75A.376.376 0 008.604 0H5.362a.376.376 0 00-.374.375v.75c0 .206.168.375.374.375h.873v1.544A6.493 6.493 0 00.499 9.5c0 3.59 2.902 6.5 6.484 6.5 3.581 0 6.484-2.91 6.484-6.5a6.48 6.48 0 00-1.188-3.75zM6.983 14.5a4.992 4.992 0 01-4.988-5c0-2.763 2.232-5 4.988-5a4.992 4.992 0 014.987 5c0 2.762-2.232 5-4.987 5zm.374-3.5h-.748a.376.376 0 01-.374-.375v-4.25c0-.206.168-.375.374-.375h.748c.205 0 .374.169.374.375v4.25a.376.376 0 01-.374.375z" fill="#000"></path>
</symbol>
<symbol fill="none" xmlns="http://www.w3.org/2000/svg" viewBox="0 0 13 14" id="icon-user">
  <path d="M6.125 7a3.5 3.5 0 100-7 3.5 3.5 0 000 7zm2.45.875h-.457a4.765 4.765 0 01-3.986 0h-.457A3.676 3.676 0 000 11.55v1.137C0 13.412.588 14 1.313 14h9.624c.725 0 1.313-.588 1.313-1.313V11.55a3.676 3.676 0 00-3.675-3.675z" fill="#000"></path>
</symbol>
<symbol fill="none" xmlns="http://www.w3.org/2000/svg" viewBox="0 0 22 22" id="icon-correct">
  <path d="M21.656 11c0 5.885-4.77 10.656-10.656 10.656C5.115 21.656.344 16.886.344 11 .344 5.115 5.114.344 11 .344c5.885 0 10.656 4.77 10.656 10.656zM9.767 16.642l7.907-7.906a.687.687 0 000-.972l-.973-.972a.687.687 0 00-.972 0l-6.448 6.447-3.01-3.01a.688.688 0 00-.972 0l-.973.972a.687.687 0 000 .973l4.47 4.468a.688.688 0 00.971 0z" fill="#00B341"></path>
</symbol>
<symbol fill="none" xmlns="http://www.w3.org/2000/svg" viewBox="0 0 22 22" id="icon-error">
  <path d="M11 .344C5.113.344.344 5.114.344 11c0 5.887 4.77 10.656 10.656 10.656 5.887 0 10.656-4.77 10.656-10.656C21.656 5.113 16.886.344 11 .344zm5.225 13.453a.516.516 0 010 .73l-1.702 1.698a.516.516 0 01-.73 0L11 13.406l-2.797 2.819a.516.516 0 01-.73 0l-1.698-1.702a.516.516 0 010-.73L8.594 11 5.775 8.203a.516.516 0 010-.73L7.477 5.77a.516.516 0 01.73 0L11 8.594l2.797-2.819a.516.516 0 01.73 0l1.702 1.702a.516.516 0 010 .73L13.406 11l2.819 2.797z" fill="#F33"></path>
</symbol>
<symbol fill="none" xmlns="http://www.w3.org/2000/svg" viewBox="0 0 22 22" id="icon-pending">
  <path d="M11 0C4.923 0 0 4.923 0 11s4.923 11 11 11 11-4.923 11-11S17.077 0 11 0zm4.102 13.883l-.887 1.109a.71.71 0 01-.997.11l-2.972-2.204a1.774 1.774 0 01-.665-1.386v-6.9a.71.71 0 01.71-.709h1.419a.71.71 0 01.71.71V11l2.572 1.885a.708.708 0 01.11.998z" fill="#FF9A00"></path>
</symbol>
</svg>
